<svg preserveAspectRatio="none" overflow="visible" style="display: block;" width="26" height="26" viewBox="0 0 26 26" fill="none" xmlns="http://www.w3.org/2000/svg">
<g id="copy-03">
<path id="Icon" d="M8.66667 17.3333H7.36667C5.5465 17.3333 4.63641 17.3333 3.9412 16.9791C3.32967 16.6675 2.83248 16.1703 2.5209 15.5588C2.16667 14.8636 2.16667 13.9535 2.16667 12.1333V7.36667C2.16667 5.5465 2.16667 4.63641 2.5209 3.9412C2.83248 3.32967 3.32967 2.83248 3.9412 2.5209C4.63641 2.16667 5.5465 2.16667 7.36667 2.16667H12.1333C13.9535 2.16667 14.8636 2.16667 15.5588 2.5209C16.1703 2.83248 16.6675 3.32967 16.9791 3.9412C17.3333 4.63641 17.3333 5.5465 17.3333 7.36667V8.66667M13.8667 23.8333H18.6333C20.4535 23.8333 21.3636 23.8333 22.0588 23.4791C22.6703 23.1675 23.1675 22.6703 23.4791 22.0588C23.8333 21.3636 23.8333 20.4535 23.8333 18.6333V13.8667C23.8333 12.0465 23.8333 11.1364 23.4791 10.4412C23.1675 9.82967 22.6703 9.33248 22.0588 9.0209C21.3636 8.66667 20.4535 8.66667 18.6333 8.66667H13.8667C12.0465 8.66667 11.1364 8.66667 10.4412 9.0209C9.82967 9.33248 9.33248 9.82967 9.0209 10.4412C8.66667 11.1364 8.66667 12.0465 8.66667 13.8667V18.6333C8.66667 20.4535 8.66667 21.3636 9.0209 22.0588C9.33248 22.6703 9.82967 23.1675 10.4412 23.4791C11.1364 23.8333 12.0465 23.8333 13.8667 23.8333Z" stroke="white" stroke-width="2" stroke-linecap="round" stroke-linejoin="round"/>
</g>
</svg>
